<?xml version="1.0" encoding="utf-8"?>
<!-- Generator: Adobe Illustrator 19.0.0, SVG Export Plug-In . SVG Version: 6.00 Build 0)  -->
<svg version="1.1" id="Layer_1" xmlns="http://www.w3.org/2000/svg" xmlns:xlink="http://www.w3.org/1999/xlink" width="138.000000pt" height="38.000000pt" x="0px" y="0px"
	 viewBox="-397 311 165.1 27.5">
<style type="text/css">
	.st0{fill:#000000;}
</style>
<g id="XMLID_43_">
	<g id="XMLID_63_">
		<g id="XMLID_119_">
			<g id="XMLID_164_">
				<g id="XMLID_203_">
					<path id="XMLID_204_" class="st0" d="M-371.6,322.1c0,0.3-0.2,0.5-0.5,0.5h-9.5c-0.3,0-0.5-0.2-0.5-0.5V321
						c0-0.3,0.2-0.5,0.5-0.5h9.5c0.3,0,0.5,0.2,0.5,0.5V322.1z"/>
				</g>
				<g id="XMLID_201_">
					<path id="XMLID_202_" class="st0" d="M-367.4,325.2c0,0.3-0.2,0.5-0.5,0.5h-11.7c-0.3,0-0.5-0.2-0.5-0.5v-1.1
						c0-0.3,0.2-0.5,0.5-0.5h11.6c0.3,0,0.5,0.2,0.5,0.5L-367.4,325.2L-367.4,325.2z"/>
				</g>
				<g id="XMLID_199_">
					<path id="XMLID_200_" class="st0" d="M-364.2,328.4c0,0.3-0.2,0.5-0.5,0.5h-12.7c-0.3,0-0.5-0.2-0.5-0.5v-1.1
						c0-0.3,0.2-0.5,0.5-0.5h12.7c0.3,0,0.5,0.2,0.5,0.5L-364.2,328.4L-364.2,328.4z"/>
				</g>
				<g id="XMLID_172_">
					<path id="XMLID_197_" class="st0" d="M-364.2,331.6c0,0.3-0.2,0.5-0.5,0.5h-12.7c-0.3,0-0.5-0.2-0.5-0.5v-1.1
						c0-0.3,0.2-0.5,0.5-0.5h12.7c0.3,0,0.5,0.2,0.5,0.5L-364.2,331.6L-364.2,331.6z"/>
				</g>
				<g id="XMLID_223_">
					<path id="XMLID_171_" class="st0" d="M-367.4,334.7c0,0.3-0.2,0.5-0.5,0.5h-11.7c-0.3,0-0.5-0.2-0.5-0.5v-1.1
						c0-0.3,0.2-0.5,0.5-0.5h11.6c0.3,0,0.5,0.2,0.5,0.5L-367.4,334.7L-367.4,334.7z"/>
				</g>
				<g id="XMLID_167_">
					<path id="XMLID_168_" class="st0" d="M-371.6,337.9c0,0.3-0.2,0.5-0.5,0.5h-9.5c-0.3,0-0.5-0.2-0.5-0.5v-1.1
						c0-0.3,0.2-0.5,0.5-0.5h9.5c0.3,0,0.5,0.2,0.5,0.5V337.9z"/>
				</g>
			</g>
			<g id="XMLID_121_">
				<g id="XMLID_162_">
					<path id="XMLID_163_" class="st0" d="M-389.6,312.5c0,0.3,0.2,0.5,0.5,0.5h9.5c0.3,0,0.5-0.2,0.5-0.5v-1.1
						c0-0.3-0.2-0.5-0.5-0.5h-9.5c-0.3,0-0.5,0.2-0.5,0.5L-389.6,312.5L-389.6,312.5z"/>
				</g>
				<g id="XMLID_160_">
					<path id="XMLID_161_" class="st0" d="M-393.8,315.7c0,0.3,0.2,0.5,0.5,0.5h11.6c0.3,0,0.5-0.2,0.5-0.5v-1.1
						c0-0.3-0.2-0.5-0.5-0.5h-11.6c-0.3,0-0.5,0.2-0.5,0.5L-393.8,315.7L-393.8,315.7z"/>
				</g>
				<g id="XMLID_144_">
					<path id="XMLID_145_" class="st0" d="M-397,318.9c0,0.3,0.2,0.5,0.5,0.5h12.7c0.3,0,0.5-0.2,0.5-0.5v-1.1
						c0-0.3-0.2-0.5-0.5-0.5h-12.7c-0.3,0-0.5,0.2-0.5,0.5V318.9z"/>
				</g>
				<g id="XMLID_130_">
					<path id="XMLID_141_" class="st0" d="M-397,322.1c0,0.3,0.2,0.5,0.5,0.5h12.7c0.3,0,0.5-0.2,0.5-0.5V321c0-0.3-0.2-0.5-0.5-0.5
						h-12.7c-0.3,0-0.5,0.2-0.5,0.5V322.1z"/>
				</g>
				<g id="XMLID_128_">
					<path id="XMLID_129_" class="st0" d="M-393.8,325.2c0,0.3,0.2,0.5,0.5,0.5h11.6c0.3,0,0.5-0.2,0.5-0.5v-1.1
						c0-0.3-0.2-0.5-0.5-0.5h-11.6c-0.3,0-0.5,0.2-0.5,0.5L-393.8,325.2L-393.8,325.2z"/>
				</g>
				<g id="XMLID_125_">
					<path id="XMLID_127_" class="st0" d="M-389.6,328.4c0,0.3,0.2,0.5,0.5,0.5h9.5c0.3,0,0.5-0.2,0.5-0.5v-1.1
						c0-0.3-0.2-0.5-0.5-0.5h-9.5c-0.3,0-0.5,0.2-0.5,0.5L-389.6,328.4L-389.6,328.4z"/>
				</g>
			</g>
		</g>
	</g>
	<g id="XMLID_1_">
		<g id="XMLID_44_">
			<g id="XMLID_288_">
				<path id="XMLID_61_" class="st0" d="M-351.8,330.9c-0.5,0.1-1,0.1-1.5,0.1c-1.3,0-2.3-0.2-3-0.6c-0.6-0.4-1.1-1-1.3-1.9
					c-0.2-0.9-0.3-2.2-0.3-3.9c0-1.7,0.1-3,0.3-3.9c0.2-0.9,0.6-1.5,1.3-1.9c0.6-0.4,1.6-0.6,3-0.6c0.5,0,0.9,0,1.4,0.1
					s0.9,0.2,1.2,0.2v2.2c-1-0.1-1.7-0.2-2-0.2c-0.8,0-1.4,0.1-1.7,0.2s-0.5,0.5-0.6,1c-0.1,0.5-0.1,1.4-0.1,2.8s0,2.3,0.1,2.8
					c0.1,0.5,0.3,0.8,0.6,1s0.9,0.2,1.7,0.2c0.7,0,1.4-0.1,2.1-0.2v2.2C-350.8,330.7-351.2,330.8-351.8,330.9z"/>
				<path id="XMLID_59_" class="st0" d="M-347.5,330.4c-0.6-0.4-1-0.9-1.2-1.8c-0.2-0.8-0.2-2.2-0.2-4c0-1.9,0.1-3.2,0.2-4
					s0.5-1.4,1.2-1.8c0.6-0.4,1.7-0.5,3.2-0.5c1.5,0,2.6,0.2,3.2,0.5c0.6,0.4,1,0.9,1.2,1.8c0.2,0.8,0.2,2.1,0.2,4
					c0,1.9-0.1,3.2-0.2,4c-0.2,0.8-0.5,1.4-1.2,1.8s-1.7,0.5-3.2,0.5C-345.8,331-346.9,330.8-347.5,330.4z M-343,328.4
					c0.2-0.1,0.4-0.5,0.4-0.9c0.1-0.5,0.1-1.5,0.1-2.9c0-1.4,0-2.4-0.1-2.9c-0.1-0.5-0.2-0.8-0.4-0.9c-0.2-0.1-0.7-0.2-1.3-0.2
					s-1.1,0.1-1.3,0.2s-0.4,0.5-0.4,0.9c-0.1,0.5-0.1,1.5-0.1,2.9c0,1.4,0,2.4,0.1,2.9c0.1,0.5,0.2,0.8,0.4,0.9
					c0.2,0.1,0.7,0.2,1.3,0.2S-343.3,328.6-343,328.4z"/>
				<path id="XMLID_53_" class="st0" d="M-331.3,330.8l-3.6-7.1h-0.1v7.1h-2.7v-12.4h2.8l3.4,6.5h0.1v-6.5h2.7v12.4H-331.3z"/>
				<path id="XMLID_52_" class="st0" d="M-324.5,330.8v-9.9h-2.9v-2.4h8.6v2.4h-2.9v9.9H-324.5z"/>
				<path id="XMLID_51_" class="st0" d="M-317.4,330.8v-12.4h7.4v2.3h-4.7v2.6h4v2.3h-4v2.8h4.7v2.3H-317.4L-317.4,330.8z"/>
				<path id="XMLID_50_" class="st0" d="M-301.6,330.8l-3.6-7.1h-0.1v7.1h-2.7v-12.4h2.8l3.4,6.5h0.1v-6.5h2.7v12.4H-301.6z"/>
				<path id="XMLID_49_" class="st0" d="M-294.8,330.8v-9.9h-2.9v-2.4h8.6v2.4h-2.9v9.9H-294.8z"/>
				<path id="XMLID_298_" class="st0" d="M-287.8,330.7v-2.2c1.5,0.1,2.5,0.2,3.2,0.2c0.5,0,0.9,0,1.2-0.1c0.3-0.1,0.5-0.1,0.6-0.2
					c0.1-0.1,0.2-0.2,0.2-0.4s0-0.4,0-0.7c0-0.4,0-0.7-0.1-0.8c-0.1-0.2-0.2-0.3-0.3-0.4c-0.2-0.1-0.4-0.2-0.8-0.2l-2-0.3
					c-0.9-0.1-1.5-0.5-1.9-1.1s-0.5-1.4-0.5-2.5c0-1,0.2-1.8,0.5-2.4c0.3-0.5,0.8-0.9,1.4-1.1c0.6-0.2,1.4-0.3,2.3-0.3
					c1.1,0,2.3,0.1,3.5,0.4v2.2c-1.1-0.1-2-0.2-2.9-0.2c-0.9,0-1.5,0.1-1.7,0.2c-0.2,0.1-0.2,0.2-0.3,0.4s-0.1,0.4-0.1,0.7
					s0,0.6,0.1,0.7s0.1,0.2,0.2,0.3c0.1,0.1,0.3,0.1,0.7,0.2l2.1,0.3c0.5,0.1,0.9,0.2,1.2,0.4c0.3,0.2,0.6,0.5,0.8,0.9
					c0.2,0.5,0.4,1.3,0.4,2.3c0,1.2-0.2,2-0.5,2.6c-0.3,0.6-0.8,1-1.3,1.2c-0.5,0.2-1.3,0.3-2.2,0.3
					C-285.4,331-286.7,330.8-287.8,330.7z"/>
				<path id="XMLID_296_" class="st0" d="M-276.1,330.8v-9.9h-2.9v-2.4h8.6v2.4h-2.9v9.9H-276.1z"/>
				<path id="XMLID_293_" class="st0" d="M-263,330.8l-0.6-2.5h-3.7l-0.6,2.5h-2.8l3.3-12.4h3.9l3.3,12.4H-263z M-265.4,321h-0.1
					l-1.2,5h2.5L-265.4,321z"/>
				<path id="XMLID_291_" class="st0" d="M-253.1,330.9c-0.5,0.1-1,0.1-1.5,0.1c-1.3,0-2.3-0.2-3-0.6s-1.1-1-1.3-1.9
					c-0.2-0.9-0.3-2.2-0.3-3.9c0-1.7,0.1-3,0.3-3.9c0.2-0.9,0.6-1.5,1.3-1.9c0.6-0.4,1.6-0.6,3-0.6c0.5,0,0.9,0,1.4,0.1
					s0.9,0.2,1.2,0.2v2.2c-1-0.1-1.7-0.2-2-0.2c-0.8,0-1.4,0.1-1.7,0.2c-0.3,0.2-0.5,0.5-0.6,1c-0.1,0.5-0.1,1.4-0.1,2.8
					s0,2.3,0.1,2.8c0.1,0.5,0.3,0.8,0.6,1c0.3,0.2,0.9,0.2,1.7,0.2c0.7,0,1.4-0.1,2.1-0.2v2.2C-252.2,330.7-252.6,330.8-253.1,330.9
					z"/>
				<path id="XMLID_289_" class="st0" d="M-243.8,330.8l-2.8-5.1h-0.8v5.1h-2.8v-12.4h2.8v4.9h0.8l2.8-4.9h3l-3.6,5.9l3.6,6.4
					L-243.8,330.8L-243.8,330.8z"/>
			</g>
		</g>
		<g id="XMLID_2_">
			<path id="XMLID_235_" class="st0" d="M-237.7,322.1v-3h-1.1v-0.6h2.9v0.6h-1.1v3H-237.7z"/>
			<path id="XMLID_205_" class="st0" d="M-235.4,322.1v-3.7h1.1l0.7,2.5l0.7-2.5h1.1v3.7h-0.7v-2.9l-0.7,2.9h-0.7l-0.7-2.9v2.9
				H-235.4z"/>
		</g>
	</g>
</g>
</svg>
